<svg width="1440" height="342" viewBox="0 0 1440 342" fill="none" xmlns="http://www.w3.org/2000/svg">
    <path d="M1036 249.5C1263.6 154.3 1445.17 144.5 1507.5 151.5L1452.5 423.5L-55.0002 368.5C-57.8335 273.5 -52.9002 82.7 -10.5002 79.5C42.4998 75.5 182.5 249.5 272 234.5C361.5 219.5 528.5 249.5 573.5 285.5C618.5 321.5 751.5 368.5 1036 249.5Z" fill="#85B8B5"/>
    <path d="M1273.41 314.567C1200.61 280.567 1188.41 323.4 1191.41 349.067L1199.41 428.067L1439.41 448.567V287.567C1442.91 272.9 1439.51 242.167 1397.91 236.567C1356.31 230.967 1349.24 268.234 1350.91 287.567C1284.51 265.967 1271.57 296.567 1273.41 314.567Z" fill="#70A6A1"/>
    <path d="M1447.57 420C1391.33 324.639 1304.78 95.7724 1464.11 102.13C1623.43 108.487 1530.5 313.823 1447.57 420Z" fill="#6C9995"/>
    <path d="M154.809 237.989C217.453 288.133 93.9044 337.905 24.2995 356.523L-38.4687 395L-77 156.07L-22.9319 6.50632C-10.0883 -1.56144 23.1809 -8.63624 53.5092 27.6066C71.4554 49.0527 59.2411 75.1779 39.7094 97.1357C59.8058 88.4814 81.9 90.8557 98.8761 121.317C119.015 157.452 96.4551 193.269 69.7566 219.585C92.7903 211.174 121.938 211.677 154.809 237.989Z" fill="#6C9995"/>
</svg>
